
<svg xmlns="http://www.w3.org/2000/svg" viewBox="0 0 197 24">
    <g fill="none" fill-rule="evenodd">
        <g fill="#4317D1" fill-rule="nonzero">
            <g>
                <g>
                    <path d="M29.518 3.292V19h3.454v-5.06l1.98-2.002L39.682 19h4.334l-6.732-9.504 6.138-6.204H39.11l-6.138 6.512V3.292h-3.454zM55.742 19V7.626h-3.124v5.962c0 1.159-.19 1.991-.572 2.497-.381.506-.997.759-1.848.759-.748 0-1.269-.231-1.562-.693-.293-.462-.44-1.162-.44-2.101V7.626h-3.124v6.996c0 .704.062 1.346.187 1.925.125.58.341 1.07.649 1.474.308.403.73.715 1.265.935.535.22 1.221.33 2.057.33.66 0 1.305-.147 1.936-.44.63-.293 1.144-.77 1.54-1.43h.066V19h2.97zm2.376-11.374V19h3.124v-5.126c0-.513.051-.99.154-1.43.103-.44.275-.825.517-1.155.242-.33.561-.59.957-.781.396-.19.88-.286 1.452-.286.19 0 .389.011.594.033.205.022.381.048.528.077V7.428c-.25-.073-.477-.11-.682-.11-.396 0-.777.059-1.144.176-.367.117-.711.282-1.034.495-.323.213-.609.47-.858.77-.25.3-.447.627-.594.979h-.044V7.626h-2.97zm10.978 7.678h-2.97c.03.763.202 1.397.517 1.903s.719.913 1.21 1.221c.491.308 1.052.528 1.683.66.63.132 1.276.198 1.936.198.645 0 1.28-.062 1.903-.187s1.177-.341 1.661-.649.876-.715 1.177-1.221c.3-.506.451-1.133.451-1.881 0-.528-.103-.972-.308-1.331-.205-.36-.477-.66-.814-.902-.337-.242-.722-.436-1.155-.583-.433-.147-.876-.271-1.331-.374-.44-.103-.873-.198-1.298-.286-.425-.088-.803-.187-1.133-.297-.33-.11-.598-.253-.803-.429-.205-.176-.308-.403-.308-.682 0-.235.059-.422.176-.561.117-.14.26-.246.429-.319.169-.073.356-.121.561-.143.205-.022.396-.033.572-.033.557 0 1.041.106 1.452.319.41.213.638.62.682 1.221h2.97c-.059-.704-.238-1.287-.539-1.749-.3-.462-.678-.832-1.133-1.111-.455-.279-.972-.477-1.551-.594-.58-.117-1.177-.176-1.793-.176-.616 0-1.217.055-1.804.165-.587.11-1.115.3-1.584.572-.47.271-.847.642-1.133 1.111-.286.47-.429 1.07-.429 1.804 0 .499.103.92.308 1.265.205.345.477.63.814.858.337.227.722.41 1.155.55.433.14.876.26 1.331.363 1.115.235 1.984.47 2.607.704.623.235.935.587.935 1.056 0 .279-.066.51-.198.693-.132.183-.297.33-.495.44-.198.11-.418.19-.66.242-.242.051-.473.077-.693.077-.308 0-.605-.037-.891-.11-.286-.073-.539-.187-.759-.341-.22-.154-.4-.352-.539-.594-.14-.242-.209-.532-.209-.869zM89.16 19V7.626h-3.124v5.962c0 1.159-.19 1.991-.572 2.497-.381.506-.997.759-1.848.759-.748 0-1.269-.231-1.562-.693-.293-.462-.44-1.162-.44-2.101V7.626H78.49v6.996c0 .704.062 1.346.187 1.925.125.58.341 1.07.649 1.474.308.403.73.715 1.265.935.535.22 1.221.33 2.057.33.66 0 1.305-.147 1.936-.44.63-.293 1.144-.77 1.54-1.43h.066V19h2.97zm6.336-11.374v-3.41h-3.124v3.41H90.48v2.09h1.892v6.71c0 .572.095 1.034.286 1.386.19.352.451.623.781.814.33.19.711.319 1.144.385.433.066.891.099 1.375.099.308 0 .623-.007.946-.022.323-.015.616-.044.88-.088v-2.42c-.147.03-.3.051-.462.066-.161.015-.33.022-.506.022-.528 0-.88-.088-1.056-.264-.176-.176-.264-.528-.264-1.056V9.716h2.288v-2.09h-2.288zM105.572 19l3.85-11.374h-3.102l-2.398 7.766h-.044l-2.398-7.766h-3.278L102.096 19h3.476zm6.534-15.708v2.574h2.97V3.292h-2.97zm4.532 0v2.574h2.97V3.292h-2.97zm-6.05 7.832h3.124c.059-.616.264-1.056.616-1.32s.836-.396 1.452-.396c.279 0 .539.018.781.055.242.037.455.11.638.22s.33.264.44.462c.11.198.165.466.165.803.015.323-.08.568-.286.737-.205.169-.484.297-.836.385-.282.07-.596.127-.943.169l-.267.029c-.455.044-.917.103-1.386.176-.47.073-.935.172-1.397.297-.462.125-.873.312-1.232.561-.36.25-.653.583-.88 1.001-.227.418-.341.95-.341 1.595 0 .587.099 1.093.297 1.518.198.425.473.777.825 1.056s.763.484 1.232.616c.47.132.975.198 1.518.198.704 0 1.393-.103 2.068-.308.675-.205 1.261-.565 1.76-1.078.015.19.04.378.077.561.037.183.084.363.143.539h3.168c-.147-.235-.25-.587-.308-1.056-.059-.47-.088-.96-.088-1.474v-5.918c0-.69-.154-1.243-.462-1.661-.308-.418-.704-.744-1.188-.979s-1.02-.392-1.606-.473c-.587-.08-1.166-.121-1.738-.121-.63 0-1.258.062-1.881.187s-1.184.334-1.683.627c-.499.293-.91.682-1.232 1.166-.323.484-.506 1.093-.55 1.826zm7.216 2.31V14.6c0 .176-.018.41-.055.704-.037.293-.136.583-.297.869-.161.286-.41.532-.748.737-.337.205-.814.308-1.43.308-.25 0-.491-.022-.726-.066-.235-.044-.44-.121-.616-.231-.176-.11-.315-.26-.418-.451-.103-.19-.154-.425-.154-.704 0-.293.051-.535.154-.726.103-.19.238-.348.407-.473.169-.125.367-.224.594-.297.227-.073.458-.132.693-.176l.374-.06.374-.05c.25-.03.488-.066.715-.11.227-.044.44-.099.638-.165s.363-.158.495-.275zm5.544-5.808V19h3.124v-5.126c0-.513.051-.99.154-1.43.103-.44.275-.825.517-1.155.242-.33.561-.59.957-.781.396-.19.88-.286 1.452-.286.19 0 .389.011.594.033.205.022.381.048.528.077V7.428c-.25-.073-.477-.11-.682-.11-.396 0-.777.059-1.144.176-.367.117-.711.282-1.034.495-.323.213-.609.47-.858.77-.25.3-.447.627-.594.979h-.044V7.626h-2.97zm16.632 5.654c0 .47-.044.924-.132 1.364-.088.44-.235.832-.44 1.177-.205.345-.48.62-.825.825-.345.205-.774.308-1.287.308-.484 0-.898-.106-1.243-.319-.345-.213-.63-.491-.858-.836-.227-.345-.392-.737-.495-1.177-.103-.44-.154-.88-.154-1.32 0-.47.048-.92.143-1.353.095-.433.25-.818.462-1.155.213-.337.495-.609.847-.814.352-.205.785-.308 1.298-.308s.939.103 1.276.308c.337.205.612.473.825.803.213.33.363.711.451 1.144.088.433.132.884.132 1.353zm.044 4.268V19h2.97V3.292h-3.124v5.72h-.044c-.352-.557-.832-.979-1.441-1.265-.609-.286-1.25-.429-1.925-.429-.836 0-1.57.165-2.2.495-.63.33-1.155.766-1.573 1.309-.418.543-.733 1.17-.946 1.881-.213.711-.319 1.448-.319 2.211 0 .792.106 1.555.319 2.288.213.733.528 1.382.946 1.947.418.565.95 1.012 1.595 1.342.645.33 1.393.495 2.244.495.748 0 1.419-.136 2.013-.407.594-.271 1.074-.715 1.441-1.331h.044zm12.98-5.456h-5.082c.015-.22.062-.47.143-.748.08-.279.22-.543.418-.792.198-.25.462-.458.792-.627.33-.169.744-.253 1.243-.253.763 0 1.331.205 1.705.616.374.41.634 1.012.781 1.804zm-5.082 1.98h8.206c.059-.88-.015-1.723-.22-2.53-.205-.807-.539-1.525-1.001-2.156-.462-.63-1.052-1.133-1.771-1.507-.719-.374-1.562-.561-2.53-.561-.865 0-1.654.154-2.365.462-.711.308-1.324.73-1.837 1.265-.513.535-.91 1.17-1.188 1.903-.279.733-.418 1.525-.418 2.376 0 .88.136 1.687.407 2.42.271.733.656 1.364 1.155 1.892.499.528 1.107.935 1.826 1.221.719.286 1.525.429 2.42.429 1.29 0 2.39-.293 3.3-.88.91-.587 1.584-1.562 2.024-2.926h-2.75c-.103.352-.381.686-.836 1.001-.455.315-.997.473-1.628.473-.88 0-1.555-.227-2.024-.682-.47-.455-.726-1.188-.77-2.2zm10.054-6.446V19h3.124v-5.126c0-.513.051-.99.154-1.43.103-.44.275-.825.517-1.155.242-.33.561-.59.957-.781.396-.19.88-.286 1.452-.286.19 0 .389.011.594.033.205.022.381.048.528.077V7.428c-.25-.073-.477-.11-.682-.11-.396 0-.777.059-1.144.176-.367.117-.711.282-1.034.495-.323.213-.609.47-.858.77-.25.3-.447.627-.594.979h-.044V7.626h-2.97zm11.77-1.76V3.292h-3.124v2.574h3.124zm-3.124 1.76V19h3.124V7.626h-3.124zm23.166-.308c.748 0 1.404.14 1.969.418.565.279 1.038.748 1.419 1.408h.044V7.626h2.97v10.648c0 .455-.062.975-.187 1.562-.125.587-.392 1.133-.803 1.639-.41.506-1.005.935-1.782 1.287-.777.352-1.819.528-3.124.528-.557 0-1.126-.07-1.705-.209-.58-.14-1.107-.356-1.584-.649-.477-.293-.873-.671-1.188-1.133-.315-.462-.495-1.016-.539-1.661h3.102c.147.587.433.994.858 1.221.425.227.917.341 1.474.341.88 0 1.522-.264 1.925-.792.363-.475.557-1.063.581-1.764l.002-1.734h-.044c-.337.601-.818 1.045-1.441 1.331-.623.286-1.28.429-1.969.429-.85 0-1.584-.15-2.2-.451-.616-.3-1.122-.711-1.518-1.232-.396-.52-.686-1.13-.869-1.826-.183-.697-.275-1.434-.275-2.211 0-.733.106-1.441.319-2.123.213-.682.524-1.283.935-1.804.41-.52.92-.935 1.529-1.243.609-.308 1.309-.462 2.101-.462zm-11.066 0c.836 0 1.522.114 2.057.341.535.227.957.543 1.265.946.308.403.524.895.649 1.474.125.58.187 1.221.187 1.925V19h-3.124v-6.424c0-.939-.147-1.639-.44-2.101-.293-.462-.814-.693-1.562-.693-.85 0-1.467.253-1.848.759s-.572 1.338-.572 2.497V19h-3.124V7.626h2.97V9.21h.066c.396-.66.91-1.14 1.54-1.441.63-.3 1.276-.451 1.936-.451zm11.836 2.354c-.44 0-.818.088-1.133.264-.315.176-.58.414-.792.715-.213.3-.367.645-.462 1.034-.095.389-.143.796-.143 1.221 0 .41.04.818.121 1.221.08.403.22.766.418 1.089.198.323.458.587.781.792.323.205.726.308 1.21.308.44 0 .829-.088 1.166-.264.337-.176.616-.41.836-.704.22-.293.385-.627.495-1.001.11-.374.165-.766.165-1.177 0-.47-.044-.913-.132-1.331-.088-.418-.235-.788-.44-1.111-.205-.323-.477-.58-.814-.77-.337-.19-.763-.286-1.276-.286z" transform="translate(-259 -44) translate(259 35) translate(0 9)"/>
                    <g>
                        <path d="M11 .176C5.031.176.176 5.03.176 11 .176 16.969 5.03 21.824 11 21.824c5.969 0 10.824-4.855 10.824-10.824C21.824 5.031 16.97.176 11 .176zm6 8.619l-6.913 6.913c-.21.21-.502.33-.8.33v.469l-.01-.468c-.301-.003-.594-.129-.803-.346l-3.488-3.615c-.433-.448-.42-1.165.029-1.598.211-.205.49-.317.784-.317.31 0 .599.123.814.346l2.689 2.786 6.1-6.1c.213-.213.497-.33.799-.33.302 0 .586.117.8.33.44.442.44 1.159-.001 1.6z" transform="translate(-259 -44) translate(259 35) translate(0 9)"/>
                    </g>
                </g>
            </g>
        </g>
    </g>
</svg>
